<?xml version="1.0" encoding="UTF-8" standalone="no"?>
<!-- Created with Inkscape (http://www.inkscape.org/) -->

<svg
   width="64"
   height="64"
   viewBox="0 0 12.698413 12.698413"
   version="1.1"
   id="svg8"
   inkscape:version="1.2.2 (b0a8486541, 2022-12-01)"
   sodipodi:docname="opensnitch-ui.svg"
   inkscape:export-filename="64x64/opensnitch-ui.png"
   inkscape:export-xdpi="96"
   inkscape:export-ydpi="96"
   xmlns:inkscape="http://www.inkscape.org/namespaces/inkscape"
   xmlns:sodipodi="http://sodipodi.sourceforge.net/DTD/sodipodi-0.dtd"
   xmlns="http://www.w3.org/2000/svg"
   xmlns:svg="http://www.w3.org/2000/svg"
   xmlns:rdf="http://www.w3.org/1999/02/22-rdf-syntax-ns#"
   xmlns:cc="http://creativecommons.org/ns#"
   xmlns:dc="http://purl.org/dc/elements/1.1/">
  <defs
     id="defs2" />
  <sodipodi:namedview
     id="base"
     pagecolor="#ffffff"
     bordercolor="#666666"
     borderopacity="1.0"
     inkscape:pageopacity="0.0"
     inkscape:pageshadow="2"
     inkscape:zoom="9.75"
     inkscape:cx="21.74359"
     inkscape:cy="31.794872"
     inkscape:document-units="px"
     inkscape:current-layer="g4133"
     showgrid="true"
     inkscape:window-width="1600"
     inkscape:window-height="839"
     inkscape:window-x="0"
     inkscape:window-y="24"
     inkscape:window-maximized="1"
     units="px"
     inkscape:pagecheckerboard="0"
     inkscape:showpageshadow="2"
     inkscape:deskcolor="#d1d1d1"
     showguides="true">
    <sodipodi:guide
       position="13.436869,10.958536"
       orientation="0,-1"
       id="guide291"
       inkscape:locked="false" />
    <sodipodi:guide
       position="13.233163,1.6160318"
       orientation="0,-1"
       id="guide293"
       inkscape:locked="false" />
    <inkscape:grid
       type="xygrid"
       id="grid295" />
  </sodipodi:namedview>
  <metadata
     id="metadata5">
    <rdf:RDF>
      <cc:Work
         rdf:about="">
        <dc:format>image/svg+xml</dc:format>
        <dc:type
           rdf:resource="http://purl.org/dc/dcmitype/StillImage" />
      </cc:Work>
    </rdf:RDF>
  </metadata>
  <g
     inkscape:label="Capa 1"
     inkscape:groupmode="layer"
     id="layer1"
     transform="translate(0,-284.30001)">
    <g
       id="g4133"
       transform="matrix(0.9182611,0,0,0.9182611,-19.582232,24.4642)">
      <path
         style="fill:#232629;fill-opacity:1;fill-rule:evenodd;stroke:none;stroke-width:0.287462px;stroke-linecap:butt;stroke-linejoin:miter;stroke-opacity:1"
         d="m 23.93778,289.55608 0.922529,-2.47895 2.563056,-0.57549 2.395943,-1.27803 2.491924,1.17578 0.401143,2.50266 1.620734,1.26491 0.381256,1.78538 -0.666013,1.62872 -1.326357,0.85434 -9.105041,0.0948 -1.530218,-1.13976 -0.31061,-1.71767 0.780558,-1.56852 z"
         id="path1481"
         sodipodi:nodetypes="ccccccccccccccc"
         inkscape:export-filename="/home/ga/Proiektuak/opensnitch/gui/opensnitch/ui/lib/python3.9/site-packages/opensnitch/res/icon-white.png"
         inkscape:export-xdpi="96"
         inkscape:export-ydpi="96" />
      <path
         style="fill:#fbffff;fill-opacity:1;stroke:none;stroke-width:0.0267051;stroke-opacity:1"
         d="m 23.924347,295.01517 c -1.190403,-0.17151 -2.160364,-1.04049 -2.48066,-2.22233 -0.06228,-0.22986 -0.06956,-0.30524 -0.06956,-0.7212 0,-0.41596 0.0072,-0.49134 0.06956,-0.72117 0.147237,-0.54329 0.408851,-0.99654 0.795944,-1.37896 0.324557,-0.32066 0.785409,-0.60618 1.154881,-0.71557 l 0.103224,-0.0303 0.01629,-0.29557 c 0.07143,-1.29674 0.972433,-2.37494 2.27078,-2.71736 0.229851,-0.0607 0.312438,-0.0688 0.716539,-0.0696 0.257818,-6.1e-4 0.509198,0.0123 0.577176,0.0292 0.120416,0.0303 0.120441,0.0303 0.198793,-0.0679 0.155946,-0.19524 0.509186,-0.51209 0.74373,-0.66706 0.551463,-0.36443 1.11147,-0.54697 1.774575,-0.57842 0.589067,-0.0277 1.121425,0.0806 1.650413,0.33595 0.72776,0.35149 1.243577,0.8611 1.599369,1.58011 0.255831,0.51699 0.367014,1.04428 0.341349,1.61884 l -0.01332,0.2989 0.217937,0.14177 c 0.119863,0.078 0.346565,0.26788 0.503782,0.42196 0.88975,0.87202 1.218873,2.08704 0.893766,3.29955 -0.132616,0.49457 -0.500547,1.11835 -0.881945,1.49513 -0.364404,0.36002 -1.001057,0.73363 -1.4664,0.86052 -0.492709,0.13439 -0.431399,0.13271 -4.634625,0.12938 -2.15745,-0.002 -3.994154,-0.0135 -4.081564,-0.0261 z m 8.365743,-0.89453 c 0.59725,-0.15778 1.128615,-0.51689 1.486943,-1.00491 0.147801,-0.20133 0.33126,-0.60206 0.39973,-0.87313 0.08448,-0.33442 0.08466,-0.85621 4.07e-4,-1.18961 -0.203279,-0.80452 -0.831632,-1.50173 -1.597272,-1.77233 -0.153083,-0.0541 -0.232971,-0.0955 -0.224805,-0.11652 0.252703,-0.65059 0.224901,-1.36673 -0.07754,-1.99749 -0.264858,-0.55243 -0.669292,-0.9522 -1.225766,-1.21167 -0.399047,-0.18607 -0.636305,-0.23736 -1.097982,-0.23736 -0.319298,0 -0.430775,0.0109 -0.61795,0.0601 -0.739241,0.19424 -1.358854,0.68643 -1.680928,1.33522 l -0.07478,0.15063 -0.122961,-0.0614 c -0.228775,-0.11421 -0.565847,-0.2025 -0.834911,-0.21871 -0.932118,-0.0562 -1.838882,0.55372 -2.13689,1.4371 -0.168757,0.50024 -0.151725,0.9779 0.05358,1.50243 0.01377,0.035 -0.0089,0.0394 -0.156728,0.03 -0.208357,-0.0132 -0.547143,0.0503 -0.81323,0.15241 -0.54704,0.20974 -1.043227,0.72489 -1.228933,1.27596 -0.172171,0.51087 -0.161028,0.97577 0.03539,1.47692 0.212384,0.54181 0.73321,1.03044 1.29576,1.21563 0.113249,0.0371 0.270424,0.0783 0.349276,0.0916 0.08114,0.0136 1.857609,0.0221 4.092874,0.0195 l 3.949506,-0.004 z m -5.761885,-1.40118 c -0.576304,-0.34169 -1.047827,-0.63319 -1.047827,-0.64782 0,-0.0148 0.471523,-0.30613 1.047827,-0.64783 l 1.047829,-0.62116 0.0074,0.42212 0.0074,0.42218 h 1.718841 1.718847 v 0.42469 0.42469 h -1.718876 -1.718849 l -0.0074,0.42218 -0.0074,0.42217 z m 2.350898,-2.34355 v -0.42777 h -1.719512 -1.719514 v -0.42468 -0.42471 h 1.718847 1.718849 l 0.0074,-0.42217 0.0074,-0.42216 1.047812,0.6212 c 0.5763,0.34168 1.051205,0.63124 1.055344,0.64353 0.0041,0.0124 -0.443196,0.28902 -0.99408,0.61507 -0.550883,0.32599 -1.028812,0.61 -1.062059,0.63111 l -0.06046,0.0382 z"
         id="path826-6"
         inkscape:connector-curvature="0" />
    </g>
  </g>
</svg>
