<?xml version="1.0" encoding="utf-8"?>
<svg version="1.1" id="Layer_3" xmlns="http://www.w3.org/2000/svg" xmlns:xlink="http://www.w3.org/1999/xlink" x="0px" y="0px"
	 viewBox="0 0 1024 1024" style="enable-background:new 0 0 1024 1024;" xml:space="preserve">
<style type="text/css">
	.st0{fill:url(#SVGID_1_);}
	.st1{fill:#FFFFFF;}
	.st2{fill:url(#SVGID_00000161592308717758896670000011407212868902431873_);}
	.st3{fill:url(#SVGID_00000181072756578914077880000006696375383412769181_);}
	.st4{fill:#231F20;}
</style>
<g>
	<linearGradient id="SVGID_1_" gradientUnits="userSpaceOnUse" x1="512" y1="183.4706" x2="512" y2="841.6796">
		<stop  offset="0" style="stop-color:#FAFBFD"/>
		<stop  offset="1" style="stop-color:#E2E9F0"/>
	</linearGradient>
	<path class="st0" d="M735,925H289c-104.9,0-190-85.1-190-190V289c0-104.9,85.1-190,190-190h446c104.9,0,190,85.1,190,190v446
		C925,839.9,839.9,925,735,925z"/>
</g>
<g>
	<g>
		<path class="st1" d="M412.4,710.9c-2.8-10.3-3.1-15.9-3.1-28.1c0-12.2,0.3-17.7,3.1-28.1c5.5-20.4,15.3-37.3,30-51.8
			c6.7-6.7,14.9-12.8,23.3-17.8c3.6-18.2,11.7-35.2,23.8-49.7c15.3-18.3,35.9-31.3,59.6-37.6c10.2-2.7,16-3,27.7-3l0.5,0
			c0.8,0,1.7,0,2.7,0c5-4.5,10.3-8.7,14.9-11.8c19.5-12.9,40.4-19.7,63.9-20.8c2.1-0.1,4.2-0.1,6.3-0.1c13,0,25.3,1.9,37.3,5.8
			l1-148.2c0.1-14.4-10.8-26.5-25.1-28c-42.4-4.4-128.2-18.5-181.5-63.1c-10.4-8.7-25.5-8.7-35.9,0
			c-53.3,44.7-139.2,58.8-181.5,63.1c-14.3,1.5-25.2,13.6-25.1,28l1.1,162.8c0,0.8,0,1.6-0.1,2.3c-0.5,7.5-2.1,58.1,37.7,143.9
			C339.8,730,437.3,774.4,468.7,786.4c4.1,1.6,8.5,2.1,12.9,1.7C448.1,775.2,422.1,746.9,412.4,710.9z"/>
	</g>
	<g>
		<g>
			<path class="st1" d="M814.1,650.6c-4.5-16.8-13.7-32.3-26.5-44.8c-3.7-3.6-9.6-8.8-13.9-11.7c0.7-16.9-2.6-32.4-10.1-47.6
				c-10.4-21-25.7-36.1-46.9-46.4c-13.9-6.7-28.1-10-43.3-10c-1.7,0-3.4,0-5.2,0.1c-19.3,0.9-35.9,6.3-51.9,16.9
				c-5.8,3.8-13.4,10.5-18.7,16.1c-4.3-0.3-9.3-0.4-11.9-0.4l-0.5,0c-10.6,0-14.2,0.2-21.6,2.2c-18.9,5-35.3,15.3-47.5,29.9
				c-11.9,14.2-18.8,31.5-20.2,49.9c-9.9,4.2-20.5,11.3-28.4,19.2c-11.6,11.5-19.4,24.9-23.8,41.2c-2,7.5-2.2,10.8-2.2,21.9
				c0,11,0.2,14.4,2.2,21.9c9.5,35.2,38.7,61.2,74.2,66.4l13.1,0.4c22.9,0.3,69.4,0.4,92.5,0.4l4.3,0c13.7,0,25.5,0,35.8,0
				c65.5,0,68.5-0.3,80.7-3.7l0.5-0.1c14.1-3.8,32.3-14.5,43.2-25.3c11.3-11.2,22-29.3,26-44.1C818.6,685.4,818.7,667.3,814.1,650.6
				z M522.2,740.2c-2-0.3-6-1.4-8.9-2.3c-14.3-4.7-27.5-17.1-32.9-30.9c-5-12.7-5.3-24.5-0.9-37.5c4.7-14,17.3-27.1,31.2-32.4
				c6.8-2.6,15.4-4.2,20.7-3.9c3.8,0.2,4.3,0.1,4-0.8c-5.2-13.3-5.6-25.5-1.4-38.2c7.6-22.4,30.6-37.9,54.3-36.5
				c6.8,0.4,15.4,2.7,21.2,5.6l3.1,1.6l1.9-3.8c8.2-16.5,23.9-29,42.7-33.9c4.8-1.2,7.6-1.5,15.7-1.5c11.7,0,17.8,1.3,27.9,6
				c14.1,6.6,24.4,16.7,31.1,30.8c7.7,16,8.4,34.2,2,50.7c-0.2,0.5,1.8,1.6,5.7,3c19.4,6.9,35.4,24.6,40.6,45
				c2.1,8.5,2.1,21.7,0,30.2c-1.7,6.9-6.4,17.1-10.2,22.2c-9.1,12.4-22.6,21.5-37.8,25.5l-5.8,1.5l-100.3,0.1
				C569.3,740.8,524.2,740.5,522.2,740.2z"/>
		</g>
	</g>
	<path class="st1" d="M612.7,708.5l0.2-10.7h43.7h43.7V687v-10.8h-43.7h-43.7l-0.2-10.7l-0.2-10.7l-26.6,15.8
		c-14.6,8.7-26.6,16.1-26.6,16.5c0,0.4,12,7.8,26.6,16.5l26.6,15.8L612.7,708.5z"/>
	<path class="st1" d="M645.6,633.1v10.9l0,10.9l1.5-1c0.8-0.5,13-7.7,27-16c14-8.3,25.4-15.3,25.2-15.6c-0.1-0.3-12.2-7.7-26.8-16.3
		l-26.6-15.8l-0.2,10.7l-0.2,10.7h-43.7h-43.7v10.8v10.8h43.7H645.6z"/>
</g>
<g>
	<g>
		
			<radialGradient id="SVGID_00000003787851252884194370000002190501229112868788_" cx="480.1967" cy="118.6744" r="721.1824" gradientUnits="userSpaceOnUse">
			<stop  offset="0.3195" style="stop-color:#00A5FF"/>
			<stop  offset="0.3493" style="stop-color:#009FFB"/>
			<stop  offset="0.4991" style="stop-color:#0086E8"/>
			<stop  offset="0.6543" style="stop-color:#0073DB"/>
			<stop  offset="0.8172" style="stop-color:#0069D4"/>
			<stop  offset="1" style="stop-color:#0065D1"/>
		</radialGradient>
		<path style="fill:url(#SVGID_00000003787851252884194370000002190501229112868788_);" d="M411.6,711.9
			c-2.8-10.3-3.1-15.9-3.1-28.1c0-12.2,0.3-17.7,3.1-28.1c5.5-20.4,15.3-37.3,30-51.8c6.7-6.7,14.9-12.8,23.3-17.8
			c3.6-18.2,11.7-35.2,23.8-49.7c15.3-18.3,35.9-31.3,59.6-37.6c10.2-2.7,16-3,27.7-3l0.5,0c0.8,0,1.7,0,2.7,0
			c5-4.5,10.3-8.7,14.9-11.8c19.5-12.9,40.4-19.7,63.9-20.8c2.1-0.1,4.2-0.1,6.3-0.1c13,0,25.3,1.9,37.3,5.8l1-148.2
			c0.1-14.4-10.8-26.5-25.1-28c-42.4-4.4-128.2-18.5-181.5-63.1c-10.4-8.7-25.5-8.7-35.9,0c-53.3,44.7-139.2,58.8-181.5,63.1
			c-14.3,1.5-25.2,13.6-25.1,28l1.1,162.8c0,0.8,0,1.6-0.1,2.3c-0.5,7.5-2.1,58.1,37.7,143.9C339,731,436.5,775.4,467.9,787.4
			c4.1,1.6,8.5,2.1,12.9,1.7C447.3,776.2,421.3,747.9,411.6,711.9z"/>
	</g>
	<g>
		<g>
			
				<radialGradient id="SVGID_00000093872497247934129180000014657436781655671427_" cx="586.7476" cy="244.9036" r="529.7239" gradientUnits="userSpaceOnUse">
				<stop  offset="0.3195" style="stop-color:#00A5FF"/>
				<stop  offset="0.3493" style="stop-color:#009FFB"/>
				<stop  offset="0.4991" style="stop-color:#0086E8"/>
				<stop  offset="0.6543" style="stop-color:#0073DB"/>
				<stop  offset="0.8172" style="stop-color:#0069D4"/>
				<stop  offset="1" style="stop-color:#0065D1"/>
			</radialGradient>
			<path style="fill:url(#SVGID_00000093872497247934129180000014657436781655671427_);" d="M813.3,651.6
				c-4.5-16.8-13.7-32.3-26.5-44.8c-3.7-3.6-9.6-8.8-13.9-11.7c0.7-16.9-2.6-32.4-10.1-47.6c-10.4-21-25.7-36.1-46.9-46.4
				c-13.9-6.7-28.1-10-43.3-10c-1.7,0-3.4,0-5.2,0.1c-19.3,0.9-35.9,6.3-51.9,16.9c-5.8,3.8-13.4,10.5-18.7,16.1
				c-4.3-0.3-9.3-0.4-11.9-0.4l-0.5,0c-10.6,0-14.2,0.2-21.6,2.2c-18.9,5-35.3,15.3-47.5,29.9c-11.9,14.2-18.8,31.5-20.2,49.9
				c-9.9,4.2-20.5,11.3-28.4,19.2c-11.6,11.5-19.4,24.9-23.8,41.2c-2,7.5-2.2,10.8-2.2,21.9c0,11,0.2,14.4,2.2,21.9
				c9.5,35.2,38.7,61.2,74.2,66.4l13.1,0.4c22.9,0.3,69.4,0.4,92.5,0.4l4.3,0c13.7,0,25.5,0,35.8,0c65.5,0,68.5-0.3,80.7-3.7
				l0.5-0.1c14.1-3.8,32.3-14.5,43.2-25.3c11.3-11.2,22-29.3,26-44.1C817.8,686.4,817.9,668.3,813.3,651.6z M521.4,741.2
				c-2-0.3-6-1.4-8.9-2.3c-14.3-4.7-27.5-17.1-32.9-30.9c-5-12.7-5.3-24.5-0.9-37.5c4.7-14,17.3-27.1,31.2-32.4
				c6.8-2.6,15.4-4.2,20.7-3.9c3.8,0.2,4.3,0.1,4-0.8c-5.2-13.3-5.6-25.5-1.4-38.2c7.6-22.4,30.6-37.9,54.3-36.5
				c6.8,0.4,15.4,2.7,21.2,5.6l3.1,1.6l1.9-3.8c8.2-16.5,23.9-29,42.7-33.9c4.8-1.2,7.6-1.5,15.7-1.5c11.7,0,17.8,1.3,27.9,6
				c14.1,6.6,24.4,16.7,31.1,30.8c7.7,16,8.4,34.2,2,50.7c-0.2,0.5,1.8,1.6,5.7,3c19.4,6.9,35.4,24.6,40.6,45
				c2.1,8.5,2.1,21.7,0,30.2c-1.7,6.9-6.4,17.1-10.2,22.2c-9.1,12.4-22.6,21.5-37.8,25.5l-5.8,1.5l-100.3,0.1
				C568.5,741.8,523.4,741.5,521.4,741.2z"/>
		</g>
	</g>
	<g>
		<path class="st4" d="M611.9,709.5l0.2-10.7h43.7h43.7V688v-10.8h-43.7h-43.7l-0.2-10.7l-0.2-10.7l-26.6,15.8
			c-14.6,8.7-26.6,16.1-26.6,16.5c0,0.4,12,7.8,26.6,16.5l26.6,15.8L611.9,709.5z"/>
	</g>
	<g>
		<path class="st4" d="M644.8,634.1v10.9l0,10.9l1.5-1c0.8-0.5,13-7.7,27-16c14-8.3,25.4-15.3,25.2-15.6
			c-0.1-0.3-12.2-7.7-26.8-16.3l-26.6-15.8l-0.2,10.7l-0.2,10.7h-43.7h-43.7v10.8v10.8h43.7H644.8z"/>
	</g>
</g>
</svg>
