<?xml version="1.0" encoding="UTF-8" standalone="no"?>
<svg
   width="512"
   height="512"
   viewBox="0 0 135.46667 135.46667"
   version="1.1"
   id="svg8"
   inkscape:version="1.1.1 (3bf5ae0d25, 2021-09-20)"
   sodipodi:docname="icon-pause.svg"
   inkscape:export-filename="/home/ga/Proiektuak/opensnitch/gui/opensnitch/ui/opensnitch/res/icon-pause.png"
   inkscape:export-xdpi="96"
   inkscape:export-ydpi="96"
   xmlns:inkscape="http://www.inkscape.org/namespaces/inkscape"
   xmlns:sodipodi="http://sodipodi.sourceforge.net/DTD/sodipodi-0.dtd"
   xmlns="http://www.w3.org/2000/svg"
   xmlns:svg="http://www.w3.org/2000/svg"
   xmlns:rdf="http://www.w3.org/1999/02/22-rdf-syntax-ns#"
   xmlns:cc="http://creativecommons.org/ns#"
   xmlns:dc="http://purl.org/dc/elements/1.1/">
  <defs
     id="defs2" />
  <sodipodi:namedview
     id="base"
     pagecolor="#ffffff"
     bordercolor="#666666"
     borderopacity="1.0"
     inkscape:pageopacity="0.0"
     inkscape:pageshadow="2"
     inkscape:zoom="1.8520834"
     inkscape:cx="92.868389"
     inkscape:cy="235.9505"
     inkscape:document-units="px"
     inkscape:current-layer="layer1"
     showgrid="false"
     inkscape:window-width="1600"
     inkscape:window-height="847"
     inkscape:window-x="0"
     inkscape:window-y="204"
     inkscape:window-maximized="1"
     units="px"
     inkscape:document-rotation="0"
     showguides="true"
     inkscape:guide-bbox="true"
     inkscape:pagecheckerboard="0">
    <sodipodi:guide
       position="45.643586,19.473337"
       orientation="0,-1"
       id="guide858" />
    <sodipodi:guide
       position="48.574825,118.50736"
       orientation="0,-1"
       id="guide860" />
  </sodipodi:namedview>
  <metadata
     id="metadata5">
    <rdf:RDF>
      <cc:Work
         rdf:about="">
        <dc:format>image/svg+xml</dc:format>
        <dc:type
           rdf:resource="http://purl.org/dc/dcmitype/StillImage" />
      </cc:Work>
    </rdf:RDF>
  </metadata>
  <g
     inkscape:label="Capa 1"
     inkscape:groupmode="layer"
     id="layer1"
     transform="translate(0,-284.30001)">
    <path
       style="fill:#232629;fill-opacity:1;fill-rule:evenodd;stroke:none;stroke-width:2.88352px;stroke-linecap:butt;stroke-linejoin:miter;stroke-opacity:1"
       d="m 24.756487,346.52813 9.319538,-24.69115 25.892395,-5.7321 24.204196,-12.72968 25.173834,11.71117 4.05241,24.92736 16.3729,12.59899 3.85152,17.78296 -6.72818,16.22266 -13.39906,8.50947 -91.980588,0.9444 -15.4585065,-11.35245 -3.13783,-17.10855 7.8853195,-15.623 z"
       id="path1481"
       sodipodi:nodetypes="ccccccccccccccc"
       inkscape:export-filename="/home/ga/Proiektuak/opensnitch/gui/opensnitch/ui/lib/python3.9/site-packages/opensnitch/res/icon-white.png"
       inkscape:export-xdpi="96"
       inkscape:export-ydpi="96" />
    <path
       style="fill:#ffffff;fill-opacity:1;stroke:none;stroke-width:0.260914;stroke-opacity:1"
       d="M 25.617431,400.30128 C 13.956756,398.62993 4.455433,390.16178 1.3179549,378.64484 c -0.61010168,-2.23995 -0.68141103,-2.97449 -0.68141103,-7.02809 0,-4.05349 0.0709898,-4.78804 0.68141103,-7.02767 1.4422687,-5.29433 4.0049287,-9.7113 7.7967237,-13.43793 3.1792184,-3.12477 7.6935334,-5.90721 11.3127154,-6.97315 l 1.011141,-0.29572 0.159592,-2.88031 c 0.699721,-12.63666 9.525535,-23.14365 22.243579,-26.48047 2.251529,-0.59144 3.06051,-0.67035 7.018915,-0.67878 2.525469,-0.006 4.987882,0.11997 5.653762,0.28414 1.179544,0.29572 1.179787,0.29572 1.94729,-0.66193 1.527585,-1.90257 4.987766,-4.99031 7.28526,-6.50045 5.401898,-3.5513 10.887485,-5.3302 17.382981,-5.63665 5.770238,-0.26941 10.984996,0.78506 16.16673,3.27379 7.128836,3.42523 12.181556,8.39142 15.666736,15.39805 2.50603,5.03807 3.59513,10.17644 3.34371,15.77554 l -0.13051,2.91272 2.13481,1.38154 c 1.17413,0.7598 3.3948,2.61049 4.93483,4.112 8.71561,8.49782 11.93955,20.33805 8.75495,32.15396 -1.29904,4.81951 -4.90315,10.89827 -8.63914,14.56995 -3.56956,3.50836 -9.80593,7.14911 -14.36425,8.38564 -4.82636,1.30967 -4.22578,1.29325 -45.398785,1.26083 -21.133453,-0.021 -39.125022,-0.13154 -39.981254,-0.25467 z m 81.947239,-8.71712 c 5.8504,-1.53751 11.05542,-5.03703 14.56544,-9.79276 1.44781,-1.96191 3.2449,-5.86701 3.9156,-8.50866 0.82755,-3.25884 0.82928,-8.34365 0.004,-11.5926 -1.99124,-7.83999 -8.14631,-14.63425 -15.64619,-17.27125 -1.49953,-0.52724 -2.28209,-0.9303 -2.20209,-1.1355 2.47536,-6.33996 2.20303,-13.3187 -0.75958,-19.46544 -2.59443,-5.38335 -6.55609,-9.27909 -12.007089,-11.8076 -3.90889,-1.81322 -6.232969,-2.31309 -10.75536,-2.31309 -3.127696,0 -4.219681,0.10629 -6.053166,0.58617 -7.241285,1.89288 -13.31075,6.68923 -16.465647,13.01161 l -0.732485,1.46794 -1.204478,-0.5988 c -2.240975,-1.11298 -5.542791,-1.97328 -8.178424,-2.13124 -9.130628,-0.54723 -18.012897,5.39587 -20.93206,14.00441 -1.653072,4.87486 -1.486231,9.52955 0.524816,14.64108 0.134869,0.34097 -0.08673,0.38411 -1.535235,0.29256 -2.040978,-0.12839 -5.359579,0.4904 -7.966056,1.4852 -5.358562,2.0439 -10.218999,7.06398 -12.038096,12.43418 -1.6865107,4.9784 -1.5773642,9.50883 0.346691,14.39252 2.080429,5.27991 7.182215,10.04153 12.692712,11.84623 1.10934,0.36201 2.648952,0.76296 3.421359,0.8924 0.794802,0.13259 18.196341,0.21573 40.092031,0.19047 l 38.687677,-0.0421 z"
       id="path826"
       inkscape:connector-curvature="0"
       sodipodi:nodetypes="ccsccccccccccccsccccccccccccccscccsccccsscccccccccc" />
    <text
       xml:space="preserve"
       style="font-style:normal;font-variant:normal;font-weight:normal;font-stretch:normal;font-size:76.6842px;line-height:47.9278px;font-family:Korataki;-inkscape-font-specification:Korataki;letter-spacing:0px;word-spacing:0px;fill:#ffffff;fill-opacity:1;stroke:none;stroke-width:1.91711px;stroke-linecap:butt;stroke-linejoin:miter;stroke-opacity:1"
       x="34.512127"
       y="456.6312"
       id="text841"
       transform="scale(1.1975484,0.83503932)"><tspan
         sodipodi:role="line"
         id="tspan839"
         x="34.512127"
         y="456.6312"
         style="fill:#ffffff;stroke-width:1.91711px">I</tspan></text>
    <text
       xml:space="preserve"
       style="font-style:normal;font-variant:normal;font-weight:normal;font-stretch:normal;font-size:76.6842px;line-height:47.9278px;font-family:Korataki;-inkscape-font-specification:Korataki;letter-spacing:0px;word-spacing:0px;fill:#ffffff;fill-opacity:1;stroke:none;stroke-width:1.91711px;stroke-linecap:butt;stroke-linejoin:miter;stroke-opacity:1"
       x="61.164921"
       y="456.6312"
       id="text841-7"
       transform="scale(1.1975484,0.83503932)"><tspan
         sodipodi:role="line"
         id="tspan839-6"
         x="61.164921"
         y="456.6312"
         style="fill:#ffffff;stroke-width:1.91711px">I</tspan></text>
  </g>
</svg>
