<?xml version="1.0" encoding="UTF-8" standalone="no"?>
<!-- Created with Inkscape (http://www.inkscape.org/) -->

<svg
   width="512"
   height="512"
   viewBox="0 0 135.46667 135.46667"
   version="1.1"
   id="svg8"
   inkscape:version="1.1.1 (3bf5ae0d25, 2021-09-20)"
   sodipodi:docname="icon-white.svg"
   inkscape:export-filename="/home/ga/Proiektuak/opensnitch/gui/opensnitch/ui/lib/python3.9/site-packages/opensnitch/res/icon-white.png"
   inkscape:export-xdpi="96"
   inkscape:export-ydpi="96"
   xmlns:inkscape="http://www.inkscape.org/namespaces/inkscape"
   xmlns:sodipodi="http://sodipodi.sourceforge.net/DTD/sodipodi-0.dtd"
   xmlns="http://www.w3.org/2000/svg"
   xmlns:svg="http://www.w3.org/2000/svg"
   xmlns:rdf="http://www.w3.org/1999/02/22-rdf-syntax-ns#"
   xmlns:cc="http://creativecommons.org/ns#"
   xmlns:dc="http://purl.org/dc/elements/1.1/">
  <defs
     id="defs2" />
  <sodipodi:namedview
     id="base"
     pagecolor="#ffffff"
     bordercolor="#666666"
     borderopacity="1.0"
     inkscape:pageopacity="0.0"
     inkscape:pageshadow="2"
     inkscape:zoom="0.9899495"
     inkscape:cx="288.90363"
     inkscape:cy="223.24371"
     inkscape:document-units="px"
     inkscape:current-layer="g3307"
     showgrid="false"
     inkscape:window-width="1600"
     inkscape:window-height="847"
     inkscape:window-x="0"
     inkscape:window-y="204"
     inkscape:window-maximized="1"
     units="px"
     inkscape:pagecheckerboard="0"
     showguides="true"
     inkscape:guide-bbox="true" />
  <metadata
     id="metadata5">
    <rdf:RDF>
      <cc:Work
         rdf:about="">
        <dc:format>image/svg+xml</dc:format>
        <dc:type
           rdf:resource="http://purl.org/dc/dcmitype/StillImage" />
      </cc:Work>
    </rdf:RDF>
  </metadata>
  <g
     inkscape:label="Capa 1"
     inkscape:groupmode="layer"
     id="layer1"
     transform="translate(0,-284.30001)">
    <g
       id="g3307"
       transform="matrix(10.756234,0,0,10.756234,-0.76070676,-2776.4763)">
      <path
         style="fill:#232629;fill-opacity:1;fill-rule:evenodd;stroke:none;stroke-width:0.268079px;stroke-linecap:butt;stroke-linejoin:miter;stroke-opacity:1"
         d="m 2.4759494,290.29453 0.8664313,-2.29552 2.4071989,-0.53291 2.2502482,-1.18347 2.3403932,1.08878 0.37675,2.31748 1.522178,1.17132 0.358073,1.65327 -0.625514,1.50821 -1.245702,0.79112 -8.5513735,0.0878 -1.43716703,-1.05543 -0.29172201,-1.59057 0.73309294,-1.45246 z"
         id="path1481"
         sodipodi:nodetypes="ccccccccccccccc"
         inkscape:export-filename="/home/ga/Proiektuak/opensnitch/gui/opensnitch/ui/lib/python3.9/site-packages/opensnitch/res/icon-white.png"
         inkscape:export-xdpi="96"
         inkscape:export-ydpi="96" />
      <path
         style="fill:#fbffff;fill-opacity:1;stroke:none;stroke-width:0.0245664;stroke-opacity:1"
         d="m 2.4221019,295.34968 c -1.0878659,-0.15882 -1.97427807,-0.9635 -2.26698456,-2.05789 -0.05691855,-0.21285 -0.06357126,-0.28265 -0.06357126,-0.66784 0,-0.38518 0.0066228,-0.45498 0.06357126,-0.6678 0.13455437,-0.50309 0.37363404,-0.92281 0.72738412,-1.27693 0.29660044,-0.29693 0.71775704,-0.56133 1.05540334,-0.66262 l 0.094333,-0.0281 0.014889,-0.2737 c 0.065279,-1.20079 0.888671,-2.19921 2.0751826,-2.51629 0.2100531,-0.0562 0.2855258,-0.0637 0.6548195,-0.0645 0.2356099,-5.9e-4 0.4653373,0.0114 0.5274596,0.027 0.1100438,0.0281 0.1100666,0.0281 0.1816696,-0.0629 0.1425139,-0.18079 0.4653264,-0.4742 0.6796678,-0.6177 0.5039623,-0.33746 1.0157321,-0.5065 1.6217201,-0.53562 0.538326,-0.0256 1.0248294,0.0746 1.5082517,0.31109 0.665074,0.32548 1.1364593,0.79739 1.4616053,1.46319 0.233795,0.47874 0.335401,0.96701 0.311946,1.49906 l -0.01218,0.27678 0.199164,0.13128 c 0.109539,0.0722 0.316714,0.24806 0.460388,0.39074 0.813111,0.8075 1.113884,1.93261 0.816781,3.05541 -0.121193,0.45797 -0.457432,1.0356 -0.805977,1.3845 -0.333016,0.33338 -0.91483,0.67934 -1.34009,0.79684 -0.4502688,0.12445 -0.3942394,0.12289 -4.2354147,0.11981 -1.971615,-0.002 -3.6501125,-0.0125 -3.7299933,-0.0242 z m 7.6451481,-0.82834 c 0.545805,-0.1461 1.0314,-0.47864 1.358863,-0.93055 0.13507,-0.18643 0.302726,-0.55751 0.365299,-0.80853 0.07721,-0.30967 0.07737,-0.79285 3.72e-4,-1.10158 -0.185769,-0.74499 -0.759998,-1.39061 -1.459688,-1.64119 -0.139897,-0.0501 -0.212904,-0.0884 -0.205441,-0.1079 0.230936,-0.60245 0.205529,-1.2656 -0.07086,-1.84969 -0.2420436,-0.51155 -0.6116411,-0.88174 -1.1201832,-1.12201 -0.3646743,-0.1723 -0.5814957,-0.2198 -1.0034057,-0.2198 -0.291794,0 -0.3936692,0.0101 -0.5647214,0.0557 -0.6755653,0.17987 -1.2418071,0.63564 -1.5361388,1.23642 l -0.068336,0.13949 -0.1123702,-0.0569 c -0.2090683,-0.10576 -0.5171066,-0.18751 -0.7629941,-0.20252 -0.8518289,-0.052 -1.6804874,0.51274 -1.9528265,1.33076 -0.1542208,0.46323 -0.1386557,0.90554 0.048962,1.39126 0.012582,0.0324 -0.00809,0.0365 -0.1432276,0.0278 -0.1904101,-0.0122 -0.5000142,0.0466 -0.7431816,0.14113 -0.4999194,0.19422 -0.9533668,0.67125 -1.12307682,1.18155 -0.15734055,0.47307 -0.14715788,0.90357 0.032344,1.36764 0.1940906,0.50172 0.6700544,0.95419 1.1841482,1.12568 0.1034943,0.0344 0.2471302,0.0725 0.3191908,0.0848 0.07415,0.0126 1.6976013,0.0205 3.7403281,0.0181 l 3.6093097,-0.004 z m -5.2655768,-1.2975 C 4.2750097,292.90743 3.844102,292.6375 3.844102,292.62395 c 0,-0.0137 0.4309077,-0.28347 0.9575712,-0.59989 l 0.9575723,-0.5752 0.00674,0.39089 0.00674,0.39094 h 1.5707862 1.5707918 v 0.39326 0.39327 H 7.34349 5.772697 l -0.00674,0.39094 -0.00674,0.39093 z m 2.1483996,-2.17014 v -0.39612 H 5.3786739 3.807272 v -0.39326 -0.39328 h 1.570792 1.5707932 l 0.00674,-0.39093 0.00674,-0.39093 0.9575575,0.57524 c 0.5266596,0.3164 0.9606572,0.58453 0.9644402,0.59591 0.00375,0.0115 -0.4050204,0.26764 -0.908454,0.56956 -0.5034315,0.30187 -0.940193,0.56487 -0.970577,0.58441 l -0.055248,0.0354 z"
         id="path826"
         inkscape:connector-curvature="0" />
    </g>
  </g>
</svg>
