<?xml version="1.0" encoding="UTF-8" standalone="no"?>
<!-- Created with Inkscape (http://www.inkscape.org/) -->

<svg
   width="512"
   height="512"
   viewBox="0 0 135.46667 135.46667"
   version="1.1"
   id="svg8"
   inkscape:version="1.1.1 (3bf5ae0d25, 2021-09-20)"
   sodipodi:docname="icon-white.svg"
   xmlns:inkscape="http://www.inkscape.org/namespaces/inkscape"
   xmlns:sodipodi="http://sodipodi.sourceforge.net/DTD/sodipodi-0.dtd"
   xmlns="http://www.w3.org/2000/svg"
   xmlns:svg="http://www.w3.org/2000/svg"
   xmlns:rdf="http://www.w3.org/1999/02/22-rdf-syntax-ns#"
   xmlns:cc="http://creativecommons.org/ns#"
   xmlns:dc="http://purl.org/dc/elements/1.1/">
  <defs
     id="defs2" />
  <sodipodi:namedview
     id="base"
     pagecolor="#ffffff"
     bordercolor="#666666"
     borderopacity="1.0"
     inkscape:pageopacity="0.0"
     inkscape:pageshadow="2"
     inkscape:zoom="1.0048601"
     inkscape:cx="259.24007"
     inkscape:cy="251.77634"
     inkscape:document-units="px"
     inkscape:current-layer="layer1"
     showgrid="false"
     inkscape:window-width="1600"
     inkscape:window-height="848"
     inkscape:window-x="0"
     inkscape:window-y="24"
     inkscape:window-maximized="1"
     units="px"
     inkscape:pagecheckerboard="0" />
  <metadata
     id="metadata5">
    <rdf:RDF>
      <cc:Work
         rdf:about="">
        <dc:format>image/svg+xml</dc:format>
        <dc:type
           rdf:resource="http://purl.org/dc/dcmitype/StillImage" />
      </cc:Work>
    </rdf:RDF>
  </metadata>
  <g
     inkscape:label="Capa 1"
     inkscape:groupmode="layer"
     id="layer1"
     transform="translate(0,-284.30001)">
    <path
       style="fill:#ffffff;fill-opacity:1;stroke:none;stroke-width:0.263549;stroke-opacity:1"
       d="M 25.093712,403.22819 C 13.416767,401.52529 3.9021885,392.89734 0.7603331,381.16305 c -0.61095287,-2.28222 -0.68236175,-3.03063 -0.68236175,-7.16072 0,-4.12999 0.07108828,-4.8784 0.68236175,-7.1603 1.4442808,-5.39424 4.0105163,-9.89456 7.8076019,-13.69152 3.183652,-3.18374 7.704266,-6.0187 11.328497,-7.10475 l 1.012553,-0.30129 0.159814,-2.93467 c 0.700697,-12.87513 9.538825,-23.58041 22.274613,-26.98021 2.25467,-0.60258 3.06478,-0.683 7.028708,-0.69158 2.528991,-0.006 4.994841,0.12223 5.66165,0.2895 1.181189,0.3013 1.181434,0.3013 1.950006,-0.67443 1.529717,-1.93847 4.994725,-5.08447 7.295425,-6.62311 5.409435,-3.61832 10.902674,-5.4308 17.407233,-5.74303 5.778288,-0.27449 11.000323,0.79988 16.189286,3.33557 7.13878,3.48987 12.19854,8.54979 15.68859,15.68864 2.50951,5.13315 3.60013,10.36849 3.34837,16.07324 l -0.1307,2.9677 2.1378,1.40761 c 1.17576,0.77414 3.39954,2.65975 4.94171,4.1896 8.72778,8.65819 11.95622,20.72186 8.76717,32.76076 -1.30086,4.91045 -4.90999,11.10393 -8.6512,14.84491 -3.57453,3.57457 -9.81961,7.28403 -14.38427,8.54389 -4.8331,1.33438 -4.23169,1.31765 -45.462133,1.28463 -21.162938,-0.0215 -39.179609,-0.13403 -40.037034,-0.25948 z m 82.061558,-8.88164 c 5.85856,-1.56651 11.07085,-5.13208 14.58577,-9.97756 1.44982,-1.99894 3.24941,-5.97774 3.92105,-8.66923 0.82872,-3.32035 0.83044,-8.50111 0.004,-11.81138 -1.99401,-7.98794 -8.15768,-14.91042 -15.66802,-17.59719 -1.50162,-0.53718 -2.28527,-0.94784 -2.20516,-1.15692 2.47882,-6.4596 2.2061,-13.57004 -0.76064,-19.83278 -2.59805,-5.48495 -6.56524,-9.4542 -12.023832,-12.03043 -3.914344,-1.84744 -6.241664,-2.35674 -10.770365,-2.35674 -3.132061,0 -4.22557,0.10829 -6.061612,0.59722 -7.251388,1.92861 -13.32932,6.81547 -16.488619,13.25717 l -0.733507,1.49564 -1.20616,-0.6101 c -2.2441,-1.13398 -5.550524,-2.01052 -8.189833,-2.17146 -9.143368,-0.55756 -18.03803,5.49771 -20.961266,14.26869 -1.655377,4.96686 -1.488303,9.7094 0.525549,14.91739 0.135057,0.3474 -0.08685,0.39136 -1.537376,0.29808 -2.043826,-0.13081 -5.367058,0.49966 -7.97717,1.51323 -5.366039,2.08247 -10.233257,7.19728 -12.0548917,12.66883 -1.6888634,5.07236 -1.5795646,9.68827 0.3471746,14.66413 2.0833311,5.37955 7.1922361,10.23103 12.7104201,12.06978 1.110888,0.36885 2.652648,0.77736 3.426133,0.90925 0.79591,0.1351 18.221727,0.2198 40.147966,0.19407 l 38.741639,-0.0429 z M 50.635575,380.43448 c -5.653106,-3.39262 -10.278386,-6.28687 -10.278386,-6.43215 0,-0.1469 4.62528,-3.03943 10.278386,-6.43215 l 10.278397,-6.16742 0.07238,4.19121 0.07238,4.19174 H 77.919241 94.77982 v 4.21662 4.21672 H 77.91895 61.058359 l -0.07238,4.19175 -0.07238,4.19163 z m 23.06051,-23.26871 v -4.24728 H 56.82899 39.961863 v -4.21662 -4.21683 h 16.860581 16.860592 l 0.07237,-4.19164 0.07238,-4.19164 10.278239,6.16785 c 5.653064,3.39251 10.311511,6.26746 10.352117,6.38948 0.04021,0.1233 -4.347412,2.86969 -9.751171,6.10694 -5.403738,3.23672 -10.091853,6.05666 -10.417988,6.26617 l -0.593024,0.37957 z"
       id="path826"
       inkscape:connector-curvature="0" />
  </g>
</svg>
