<?xml version="1.0" encoding="UTF-8" standalone="no"?>
<!-- Generator: Adobe Illustrator 9.0, SVG Export Plug-In  -->
<svg
   xmlns:dc="http://purl.org/dc/elements/1.1/"
   xmlns:cc="http://web.resource.org/cc/"
   xmlns:rdf="http://www.w3.org/1999/02/22-rdf-syntax-ns#"
   xmlns:svg="http://www.w3.org/2000/svg"
   xmlns="http://www.w3.org/2000/svg"
   xmlns:sodipodi="http://sodipodi.sourceforge.net/DTD/sodipodi-0.dtd"
   xmlns:inkscape="http://www.inkscape.org/namespaces/inkscape"
   width="48"
   height="48"
   viewBox="0 0 48 48"
   xml:space="preserve"
   id="svg2"
   sodipodi:version="0.32"
   inkscape:version="0.44"
   sodipodi:docname="application-exit.svg"
   sodipodi:docbase="/home/luca/Artwork/blackwhite-icon-theme/scalable/actions"
   version="1.0"><metadata
   id="metadata27"><rdf:RDF><cc:Work
       rdf:about=""><dc:format>image/svg+xml</dc:format><dc:type
         rdf:resource="http://purl.org/dc/dcmitype/StillImage" /><dc:title>Application Exit</dc:title><dc:subject><rdf:Bag><rdf:li>exit</rdf:li><rdf:li>quit</rdf:li><rdf:li>application</rdf:li><rdf:li>program</rdf:li></rdf:Bag></dc:subject><cc:license
         rdf:resource="http://creativecommons.org/licenses/LGPL/2.1/" /></cc:Work><cc:License
       rdf:about="http://creativecommons.org/licenses/LGPL/2.1/"><cc:permits
         rdf:resource="http://web.resource.org/cc/Reproduction" /><cc:permits
         rdf:resource="http://web.resource.org/cc/Distribution" /><cc:requires
         rdf:resource="http://web.resource.org/cc/Notice" /><cc:permits
         rdf:resource="http://web.resource.org/cc/DerivativeWorks" /><cc:requires
         rdf:resource="http://web.resource.org/cc/ShareAlike" /><cc:requires
         rdf:resource="http://web.resource.org/cc/SourceCode" /></cc:License></rdf:RDF></metadata><defs
   id="defs25">
		
	
			
			
			
			
			
			
			
		</defs><sodipodi:namedview
   inkscape:window-height="944"
   inkscape:window-width="1270"
   inkscape:pageshadow="2"
   inkscape:pageopacity="0.0"
   guidetolerance="10.0"
   gridtolerance="10.0"
   objecttolerance="10.0"
   borderopacity="1.0"
   bordercolor="#666666"
   pagecolor="#ffffff"
   id="base"
   showgrid="true"
   inkscape:grid-points="true"
   inkscape:zoom="12.183333"
   inkscape:cx="30"
   inkscape:cy="30"
   inkscape:window-x="0"
   inkscape:window-y="25"
   inkscape:current-layer="svg2"
   width="48px"
   height="48px" />
	<rect
   style="fill:none;fill-opacity:0.33602151;fill-rule:evenodd;stroke:none;stroke-width:1px;stroke-linecap:butt;stroke-linejoin:miter;stroke-opacity:1"
   id="rect1906"
   width="48"
   height="48"
   x="0"
   y="-2.6645353e-15" /><path
   style="fill-rule:nonzero;stroke:white;stroke-width:6.05700016;stroke-linejoin:round;stroke-miterlimit:4"
   d="M 12,4.8 C 10.8,4.8 8.8,6.4 8.8,8 L 8.8,40 C 8.8,41.6 10.4,43.2 12,43.2 L 37.6,43.2 C 39.2,43.2 40.8,41.6 40.8,40 L 40.8,8 C 40.8,6.4 39.2,4.8 37.6,4.8 L 12,4.8 z "
   id="path7"
   sodipodi:nodetypes="ccccccccc" /><path
   style="fill-rule:nonzero;stroke:none;stroke-miterlimit:4"
   d="M 12,4.8 C 10.4,4.8 8.8,6.4 8.8,8 L 8.8,40 C 8.8,41.6 10.4,43.2 12,43.2 L 37.6,43.2 C 39.2,43.2 40.8,41.6 40.8,40 L 40.8,8 C 40.8,6.4 39.2,4.8 37.6,4.8 L 12,4.8 z "
   id="path9"
   sodipodi:nodetypes="ccccccccc" /><path
   style="fill:white;fill-rule:nonzero;stroke:none;stroke-width:0.75709999;stroke-linecap:round;stroke-linejoin:round;stroke-miterlimit:4"
   d="M 28.1,29.6 C 28.1,30 28,30.2 27.7,30.4 L 13.6,40 C 12.64323,39.828686 11.998969,38.799683 12,38.4 L 12,8.8 C 12,8.4 12.4,8 12.8,8 L 27.5,6.8 C 27.9,6.8 28.2,7.1 28.2,7.5 L 28.2,29.7 L 28.1,29.6 z "
   id="path13"
   sodipodi:nodetypes="cccccccccc" /><path
   style="fill-rule:nonzero;stroke:none;stroke-miterlimit:4"
   d="M 25.5,15.1 C 25.5,16.3 24.5,17.3 23.3,17.3 C 22.1,17.3 21.1,16.3 21.1,15.1 C 21.1,13.9 22.1,12.9 23.3,12.9 C 24.5,12.9 25.5,13.9 25.5,15.1 L 25.5,15.1 z "
   id="path15" /><path
   style="fill:white;fill-rule:nonzero;stroke:none;stroke-miterlimit:4"
   d="M 12.8,12.3 C 12.2,12.6 12.8,13 12.8,13.6 C 12.8,13.6 12.8,15.1 12.8,16.8 C 10.8,16.8 5.6,16.8 5.6,16.8 C 4,16.8 2.4,18.4 2.4,20 L 2.4,28 C 2.4,29.6 4,31.2 5.6,31.2 C 5.6,31.2 10.8,31.2 12.8,31.2 C 12.8,32.8 12.8,33.6 12.8,33.6 C 12.8,34.3 12.2,34.9 12.8,35.1 C 13.4,35.4 14.1,35.2 14.6,34.7 L 24.2,25.1 C 25.2,24.1 24.9,23 24.2,22.4 L 24.2,22.4 L 14.6,12.7 C 14.1,12.2 13.4,12.1 12.7,12.3 L 12.8,12.3 z "
   id="path17"
   sodipodi:nodetypes="ccccccccccccccccc" /><path
   style="fill-rule:nonzero;stroke:none;stroke-miterlimit:4"
   d="M 14.4,13.6 C 14.4,13.4 14.6,13.4 14.7,13.5 L 23.2,23.4 C 23.5,23.7 23.4,23.8 23.2,24 L 14.6,33.7 C 14.5,33.8 14.4,33.7 14.4,33.6 L 14.4,28 L 6.4,28 C 6.4,28 5.6,28 5.6,27.2 L 5.6,20.8 C 5.6,20 6.4,20 6.4,20 L 14.4,20 L 14.4,13.6 z "
   id="path19"
   sodipodi:nodetypes="ccccccccccccc" />
	<g
   id="crop_x0020_marks"
   style="fill-rule:nonzero;stroke:black;stroke-miterlimit:4">
		<path
   style="fill:none;stroke:none"
   d="M 48,48 L 0,48 L 0,0 L 48,0 L 48,48 z "
   id="path22" />
	</g>
</svg>