<?xml version="1.0" encoding="UTF-8" standalone="no"?>
<!-- Generator: Adobe Illustrator 9.0, SVG Export Plug-In  -->
<svg
   xmlns:dc="http://purl.org/dc/elements/1.1/"
   xmlns:cc="http://web.resource.org/cc/"
   xmlns:rdf="http://www.w3.org/1999/02/22-rdf-syntax-ns#"
   xmlns:svg="http://www.w3.org/2000/svg"
   xmlns="http://www.w3.org/2000/svg"
   xmlns:sodipodi="http://inkscape.sourceforge.net/DTD/sodipodi-0.dtd"
   xmlns:inkscape="http://www.inkscape.org/namespaces/inkscape"
   width="48.000000px"
   height="48.000000px"
   viewBox="0 0 48 48"
   xml:space="preserve"
   id="svg2"
   sodipodi:version="0.32"
   inkscape:version="0.42"
   sodipodi:docname="document-open.svg"
   sodipodi:docbase="/home/luca/Desktop/black-and-white/scalable/actions"><metadata
   id="metadata19"><rdf:RDF><cc:Work
       rdf:about=""><dc:format>image/svg+xml</dc:format><dc:type
         rdf:resource="http://purl.org/dc/dcmitype/StillImage" /></cc:Work></rdf:RDF></metadata><defs
   id="defs17">
		
	
			
			
			
		</defs><sodipodi:namedview
   inkscape:window-height="948"
   inkscape:window-width="1280"
   inkscape:pageshadow="2"
   inkscape:pageopacity="0.0"
   borderopacity="1.0"
   bordercolor="#666666"
   pagecolor="#ffffff"
   id="base"
   inkscape:grid-bbox="true"
   showgrid="true"
   inkscape:grid-points="true"
   inkscape:zoom="15.791667"
   inkscape:cx="26.164026"
   inkscape:cy="23.821205"
   inkscape:window-x="0"
   inkscape:window-y="25"
   inkscape:current-layer="svg2" />
	<rect
   style="fill:none;fill-opacity:0.44219652;fill-rule:evenodd;stroke:none;stroke-width:1.0000000px;stroke-linecap:butt;stroke-linejoin:miter;stroke-opacity:1.0000000"
   id="rect3315"
   width="48.126648"
   height="48.189972"
   x="-0.063324541"
   y="-0.063324541" /><path
   sodipodi:nodetypes="ccccccscccccccc"
   id="path5506"
   d="M 6.0000000,9.0000000 C 5.0000000,9.0000000 4.0000000,10.000000 4.0000000,11.000000 L 4.0000000,36.000000 C 4.0000000,38.000000 5.0000000,39.000000 7.0000000,39.000000 L 35.000000,39.000000 C 37.000000,39.000000 38.000000,37.000000 38.000000,37.000000 L 44.000000,22.000000 C 44.584012,20.539971 44.000000,17.000000 41.000000,17.000000 L 36.000000,17.000000 C 36.000000,16.200000 36.000000,16.000000 36.000000,16.000000 C 36.000000,14.000000 35.000000,13.000000 33.000000,13.000000 L 20.000000,13.000000 L 20.000000,11.000000 C 20.000000,10.000000 19.000000,9.0000000 18.000000,9.0000000 L 6.0000000,9.0000000 z "
   style="fill-rule:nonzero;stroke:#ffffff;stroke-miterlimit:4.0000000;fill:#ffffff;fill-opacity:1.0000000;stroke-opacity:1.0000000;stroke-width:8.0000000;stroke-dasharray:none" /><path
   style="fill-rule:nonzero;stroke:none;stroke-miterlimit:4.0000000;fill:#000000;fill-opacity:1.0000000"
   d="M 6.0000000,9.0000000 C 5.0000000,9.0000000 4.0000000,10.000000 4.0000000,11.000000 L 4.0000000,36.000000 C 4.0000000,38.000000 5.0000000,39.000000 7.0000000,39.000000 L 35.000000,39.000000 C 37.000000,39.000000 38.000000,37.000000 38.000000,37.000000 L 44.000000,22.000000 C 44.584012,20.539971 44.000000,17.000000 41.000000,17.000000 L 36.000000,17.000000 C 36.000000,16.200000 36.000000,16.000000 36.000000,16.000000 C 36.000000,14.000000 35.000000,13.000000 33.000000,13.000000 L 20.000000,13.000000 L 20.000000,11.000000 C 20.000000,10.000000 19.000000,9.0000000 18.000000,9.0000000 L 6.0000000,9.0000000 z "
   id="path9"
   sodipodi:nodetypes="ccccccscccccccc" /><path
   style="fill:#ffffff;fill-rule:nonzero;stroke:none;stroke-miterlimit:4.0000000"
   d="M 9.0000000,35.000000 L 33.000000,35.100000 C 33.600000,35.100000 34.200000,34.700000 34.500000,34.200000 C 35.200000,33.200000 39.300000,23.600000 39.300000,21.700000 C 39.300000,21.300000 39.300000,21.000000 38.000000,21.000000 L 15.000000,21.000000 C 14.600000,21.000000 14.100000,21.300000 14.000000,21.900000 C 13.900000,23.400000 11.100000,33.138786 10.000000,34.438786 C 9.7000000,34.838786 9.0000000,35.000000 9.0000000,35.000000 L 9.0000000,35.000000 z "
   id="path11"
   sodipodi:nodetypes="cccscccccc" />
	
</svg>