<?xml version="1.0" encoding="UTF-8" standalone="no"?>
<!-- Generator: Adobe Illustrator 9.0, SVG Export Plug-In  -->
<svg
   xmlns:dc="http://purl.org/dc/elements/1.1/"
   xmlns:cc="http://creativecommons.org/ns#"
   xmlns:rdf="http://www.w3.org/1999/02/22-rdf-syntax-ns#"
   xmlns:svg="http://www.w3.org/2000/svg"
   xmlns="http://www.w3.org/2000/svg"
   xmlns:sodipodi="http://sodipodi.sourceforge.net/DTD/sodipodi-0.dtd"
   xmlns:inkscape="http://www.inkscape.org/namespaces/inkscape"
   width="48"
   height="48"
   viewBox="0 0 48 48"
   xml:space="preserve"
   id="svg2730"
   sodipodi:version="0.32"
   inkscape:version="0.46"
   sodipodi:docname="edit-clear.svg"
   inkscape:output_extension="org.inkscape.output.svg.inkscape"
   version="1.0"><metadata
   id="metadata2753"><rdf:RDF><cc:Work
       rdf:about=""><dc:format>image/svg+xml</dc:format><dc:type
         rdf:resource="http://purl.org/dc/dcmitype/StillImage" /></cc:Work></rdf:RDF></metadata><defs
   id="defs2751"><inkscape:perspective
   sodipodi:type="inkscape:persp3d"
   inkscape:vp_x="0 : 30 : 1"
   inkscape:vp_y="0 : 1000 : 0"
   inkscape:vp_z="60 : 30 : 1"
   inkscape:persp3d-origin="30 : 20 : 1"
   id="perspective2755" />
		
	
			
			
			
			
			
			
		</defs><sodipodi:namedview
   inkscape:window-height="878"
   inkscape:window-width="1000"
   inkscape:pageshadow="2"
   inkscape:pageopacity="0.0"
   guidetolerance="10.0"
   gridtolerance="10.0"
   objecttolerance="10.0"
   borderopacity="1.0"
   bordercolor="#666666"
   pagecolor="#ffffff"
   id="base"
   showgrid="true"
   inkscape:snap-nodes="true"
   inkscape:snap-bbox="true"
   inkscape:zoom="13.666667"
   inkscape:cx="24"
   inkscape:cy="24"
   inkscape:window-x="236"
   inkscape:window-y="76"
   inkscape:current-layer="svg2730"><inkscape:grid
     type="xygrid"
     id="grid2757"
     visible="true"
     enabled="true" /></sodipodi:namedview>
	<rect
   style="opacity:1;fill:none;fill-opacity:0.23643410000000001;stroke:none;stroke-width:4;stroke-linecap:round;stroke-linejoin:round;stroke-miterlimit:4;stroke-dasharray:none;stroke-opacity:1"
   id="rect2759"
   width="48"
   height="48"
   x="0"
   y="0" /><path
   id="path3552"
   d="M 25.112337,20.011463 L 9.3292019,30.035487 L 16.234323,39.852828 C 17.220768,41.712955 20.081463,40.576212 20.081463,40.576212 L 40.994116,30.75887 C 40.994116,30.75887 33.694417,31.998955 32.116103,29.622124 L 25.112337,20.011463 z"
   style="fill:#ffffff;fill-rule:nonzero;stroke:#ffffff;stroke-width:12;stroke-linecap:round;stroke-linejoin:round;stroke-miterlimit:4;stroke-dasharray:none;stroke-opacity:1" /><path
   sodipodi:nodetypes="ccccccccc"
   id="path3546"
   d="M 31,20 L 29,17 C 28,15.3 25.7,15 24,16 L 7,26 C 5.3,27 5,29.3 6,31 L 8,34 C 8.5030488,34.542683 9,34 9,34 L 31,21 C 31,21 31.503049,20.51626 31,20 z"
   style="fill-rule:nonzero;stroke-miterlimit:4;stroke:#ffffff;stroke-opacity:1;stroke-width:8;stroke-dasharray:none" /><path
   id="path3544"
   d="M 19.956613,20.069551 C 21.063764,21.593516 20.44868,23.661752 18.726445,24.641443 C 17.004211,25.621134 14.666891,25.076862 13.55974,23.552897 L 4.5795139,10.163786 C 3.4723628,8.6398216 4.0874468,6.5715848 5.8096819,5.5918937 C 7.5319171,4.6122025 9.8692361,5.1564754 10.976387,6.6804394 L 20.07963,19.960697 L 19.956613,20.069551 z"
   style="fill-rule:nonzero;stroke-miterlimit:4;stroke:#ffffff;stroke-opacity:1;stroke-width:8;stroke-dasharray:none" /><path
   style="fill:#ffffff;fill-rule:nonzero;stroke:#000000;stroke-width:4.01176834;stroke-linecap:round;stroke-linejoin:round;stroke-miterlimit:4;stroke-dasharray:none"
   d="M 25.112337,20.011463 L 9.3292019,30.035487 L 16.234323,39.852828 C 17.220768,41.712955 20.081463,40.576212 20.081463,40.576212 L 40.994116,30.75887 C 40.994116,30.75887 33.694417,31.998955 32.116103,29.622124 L 25.112337,20.011463 z"
   id="path2737" /><path
   style="fill-rule:nonzero;stroke-miterlimit:4"
   d="M 19.956613,20.069551 C 21.063764,21.593516 20.44868,23.661752 18.726445,24.641443 C 17.004211,25.621134 14.666891,25.076862 13.55974,23.552897 L 4.5795139,10.163786 C 3.4723628,8.6398216 4.0874468,6.5715848 5.8096819,5.5918937 C 7.5319171,4.6122025 9.8692361,5.1564754 10.976387,6.6804394 L 20.07963,19.960697 L 19.956613,20.069551 z"
   id="path2739" /><path
   style="fill-rule:nonzero;stroke-miterlimit:4"
   d="M 31,20 L 29,17 C 28,15.3 25.7,15 24,16 L 7,26 C 5.3,27 5,29.3 6,31 L 8,34 C 8.5030488,34.542683 9,34 9,34 L 31,21 C 31,21 31.503049,20.51626 31,20 z"
   id="path2741"
   sodipodi:nodetypes="ccccccccc" /><path
   style="fill:none;fill-rule:nonzero;stroke:#000000;stroke-width:3;stroke-linecap:round;stroke-linejoin:round;stroke-miterlimit:4;stroke-dasharray:none"
   d="M 20,34 C 22.2,37.3 25,38 25,38"
   id="path2745"
   sodipodi:nodetypes="cc" />
	<g
   id="crop_x0020_marks"
   style="fill-rule:nonzero;stroke:#000000;stroke-miterlimit:4">
		<path
   style="fill:none;stroke:none"
   d="M 48,48 L 0,48 L 0,0 L 48,0 L 48,48 z"
   id="path2748" />
	</g>
<path
   sodipodi:nodetypes="cc"
   id="path3550"
   d="M 25.5,31.5 C 27.7,34.8 30.5,35.5 30.5,35.5"
   style="fill:none;fill-rule:nonzero;stroke:#000000;stroke-width:3;stroke-linecap:round;stroke-linejoin:round;stroke-miterlimit:4;stroke-dasharray:none" /></svg>