<?xml version="1.0" encoding="UTF-8" standalone="no"?>
<!-- Generator: Adobe Illustrator 9.0, SVG Export Plug-In  -->
<svg
   xmlns:dc="http://purl.org/dc/elements/1.1/"
   xmlns:cc="http://web.resource.org/cc/"
   xmlns:rdf="http://www.w3.org/1999/02/22-rdf-syntax-ns#"
   xmlns:svg="http://www.w3.org/2000/svg"
   xmlns="http://www.w3.org/2000/svg"
   xmlns:sodipodi="http://inkscape.sourceforge.net/DTD/sodipodi-0.dtd"
   xmlns:inkscape="http://www.inkscape.org/namespaces/inkscape"
   width="48.000000px"
   height="48.000000px"
   viewBox="0 0 48 48"
   xml:space="preserve"
   id="svg2"
   sodipodi:version="0.32"
   inkscape:version="0.42"
   sodipodi:docname="go-down.svg"
   sodipodi:docbase="/home/luca/Desktop/black-and-white/scalable/actions"><metadata
   id="metadata17"><rdf:RDF><cc:Work
       rdf:about=""><dc:format>image/svg+xml</dc:format><dc:type
         rdf:resource="http://purl.org/dc/dcmitype/StillImage" /></cc:Work></rdf:RDF></metadata><defs
   id="defs15">
		
	
			
			
		</defs><sodipodi:namedview
   inkscape:window-height="950"
   inkscape:window-width="1280"
   inkscape:pageshadow="2"
   inkscape:pageopacity="0.0"
   borderopacity="1.0"
   bordercolor="#666666"
   pagecolor="#ffffff"
   id="base"
   showgrid="true"
   inkscape:grid-bbox="true"
   inkscape:grid-points="true"
   inkscape:zoom="15.875000"
   inkscape:cx="24.000000"
   inkscape:cy="24.000000"
   inkscape:window-x="0"
   inkscape:window-y="25"
   inkscape:current-layer="svg2" />
	<rect
   style="fill:none;fill-opacity:1.0;fill-rule:evenodd;stroke:none;stroke-width:1.0000000px;stroke-linecap:butt;stroke-linejoin:miter;stroke-opacity:1.0000000"
   id="rect3313"
   width="48.000000"
   height="48.000000"
   x="0.0000000"
   y="0.0000000" /><g
   id="g5500"
   transform="matrix(1.000000,0.000000,0.000000,-1.000000,0.000000,48.25000)"><path
     style="fill-rule:nonzero;stroke:#ffffff;stroke-width:8.0000000;stroke-miterlimit:4.0000000;stroke-dasharray:none;stroke-opacity:1.0000000"
     d="M 41.000000,26.000000 C 41.300000,26.000000 41.588189,25.467717 41.000000,25.000000 L 25.000000,9.0000000 C 24.000000,8.0000000 24.000000,8.0000000 23.000000,9.0000000 L 7.0000000,25.000000 C 6.4015748,25.425197 6.8000000,26.000000 7.0000000,26.000000 L 17.000000,26.000000 L 17.000000,39.000000 C 17.000000,39.000000 17.000000,40.000000 18.000000,40.000000 L 30.000000,40.000000 C 31.000000,40.000000 31.000000,39.000000 31.000000,39.000000 L 31.000000,26.000000 L 41.000000,26.000000 z "
     id="path4046"
     sodipodi:nodetypes="ccccccccccccc" /><path
     sodipodi:nodetypes="ccccccccccccc"
     id="path9"
     d="M 41.000000,26.000000 C 41.300000,26.000000 41.588189,25.467717 41.000000,25.000000 L 25.000000,9.0000000 C 24.000000,8.0000000 24.000000,8.0000000 23.000000,9.0000000 L 7.0000000,25.000000 C 6.4015748,25.425197 6.8000000,26.000000 7.0000000,26.000000 L 17.000000,26.000000 L 17.000000,39.000000 C 17.000000,39.000000 17.000000,40.000000 18.000000,40.000000 L 30.000000,40.000000 C 31.000000,40.000000 31.000000,39.000000 31.000000,39.000000 L 31.000000,26.000000 L 41.000000,26.000000 z "
     style="fill-rule:nonzero;stroke:none;stroke-miterlimit:4.0000000" /></g>
	
</svg>