<?xml version="1.0" encoding="UTF-8" standalone="no"?>
<!-- Generator: Adobe Illustrator 9.0, SVG Export Plug-In  -->
<svg
   xmlns:dc="http://purl.org/dc/elements/1.1/"
   xmlns:cc="http://creativecommons.org/ns#"
   xmlns:rdf="http://www.w3.org/1999/02/22-rdf-syntax-ns#"
   xmlns:svg="http://www.w3.org/2000/svg"
   xmlns="http://www.w3.org/2000/svg"
   xmlns:sodipodi="http://sodipodi.sourceforge.net/DTD/sodipodi-0.dtd"
   xmlns:inkscape="http://www.inkscape.org/namespaces/inkscape"
   width="48"
   height="48"
   viewBox="0 0 48 48"
   xml:space="preserve"
   id="svg2"
   sodipodi:version="0.32"
   inkscape:version="0.46"
   sodipodi:docname="system-run.svg"
   inkscape:output_extension="org.inkscape.output.svg.inkscape"
   version="1.0"><metadata
   id="metadata17"><rdf:RDF><cc:Work
       rdf:about=""><dc:format>image/svg+xml</dc:format><dc:type
         rdf:resource="http://purl.org/dc/dcmitype/StillImage" /></cc:Work></rdf:RDF></metadata><defs
   id="defs15" /><sodipodi:namedview
   inkscape:window-height="682"
   inkscape:window-width="641"
   inkscape:pageshadow="2"
   inkscape:pageopacity="0.0"
   guidetolerance="10.0"
   gridtolerance="10.0"
   objecttolerance="10.0"
   borderopacity="1.0"
   bordercolor="#666666"
   pagecolor="#ffffff"
   id="base"
   showgrid="true"
   inkscape:object-paths="true"
   inkscape:object-nodes="true"
   inkscape:zoom="8.2333333"
   inkscape:cx="30"
   inkscape:cy="30"
   inkscape:window-x="0"
   inkscape:window-y="25"
   inkscape:current-layer="svg2"><inkscape:grid
     type="xygrid"
     id="grid2385"
     visible="true"
     enabled="true" /></sodipodi:namedview>
	<g
   id="Layer_x0020_4"
   style="fill-rule:nonzero;stroke:#000000;stroke-miterlimit:4">
		<g
   id="g5">
			<path
   style="fill:none;stroke:#ffffff;stroke-width:7.45779991;stroke-linejoin:round"
   d="M 42.8,22.9 L 40.4,14.8 L 34.8,16.4 C 33.7,14.8 32.1,13.4 30.4,12.4 L 31.3,6.9 L 22.1,5.7 L 21.3,11 C 21,11.1 20.6,11.2 20.3,11.3 C 19.1,11.6 18,12.2 17,12.8 L 12.7,9.5 L 7,16.4 L 11.5,19.9 C 11.1,21 10.9,22.2 10.9,23.5 L 5.3,25.1 L 7.7,33.2 L 13.3,31.6 C 14.4,33.2 16,34.6 17.7,35.6 L 16.8,41.1 L 26,42.3 L 26.8,37 C 27.1,36.9 27.5,36.8 27.8,36.7 C 29,36.4 30.1,35.8 31.1,35.2 L 35.4,38.5 L 41.1,31.6 L 36.6,28.1 C 37,27 37.2,25.8 37.2,24.5 L 42.8,22.9 L 42.8,22.9 z M 25.3,28.8 C 22.5,29.6 19.5,28 18.6,25.2 C 17.7,22.4 19.4,19.4 22.2,18.5 C 25,17.7 28,19.3 28.9,22.1 C 29.7,24.9 28.1,27.9 25.3,28.8 z"
   id="path7" />
			<path
   style="stroke:none"
   d="M 42.8,22.9 L 40.4,14.8 L 34.8,16.4 C 33.7,14.8 32.1,13.4 30.4,12.4 L 31.3,6.9 L 22.1,5.7 L 21.3,11 C 21,11.1 20.6,11.2 20.3,11.3 C 19.1,11.6 18,12.2 17,12.8 L 12.7,9.5 L 7,16.4 L 11.5,19.9 C 11.1,21 10.9,22.2 10.9,23.5 L 5.3,25.1 L 7.7,33.2 L 13.3,31.6 C 14.4,33.2 16,34.6 17.7,35.6 L 16.8,41.1 L 26,42.3 L 26.8,37 C 27.1,36.9 27.5,36.8 27.8,36.7 C 29,36.4 30.1,35.8 31.1,35.2 L 35.4,38.5 L 41.1,31.6 L 36.6,28.1 C 37,27 37.2,25.8 37.2,24.5 L 42.8,22.9 L 42.8,22.9 z M 25.3,28.8 C 22.5,29.6 19.5,28 18.6,25.2 C 17.7,22.4 19.4,19.4 22.2,18.5 C 25,17.7 28,19.3 28.9,22.1 C 29.7,24.9 28.1,27.9 25.3,28.8 z"
   id="path9" />
		</g>
	</g>
	<g
   id="crop_x0020_marks"
   style="fill-rule:nonzero;stroke:#000000;stroke-miterlimit:4">
		<path
   style="fill:none;stroke:none"
   d="M 48,48 L 0,48 L 0,0 L 48,0 L 48,48 z"
   id="path12" />
	</g>
</svg>